<svg xmlns="http://www.w3.org/2000/svg" width="1159.887" height="323" viewBox="0 0 1159.887 323">
  <g id="Group_113915" data-name="Group 113915" transform="translate(-95 3)">
    <text id="_2B" data-name="2B" transform="translate(517 239)" fill="#eb5e00" font-size="230" font-family="Poppins-Regular, Poppins" letter-spacing="-0.028em"><tspan x="0" y="0">2B</tspan></text>
    <g id="Group_113910" data-name="Group 113910">
      <path id="Path_229540" data-name="Path 229540" d="M460.413,1186.082H395.641v-20.353h40.538c1.677-12.992-7-27.21-19.023-31.843-12.516-4.824-28.253-.04-35.756,11.508-2.746,4.225-5.422,9.272-5.77,14.114-.684,9.52-.949,19.4.833,28.7,3.319,17.324,16.427,27.1,35.823,26.762,11.707-.2,23.38-2.644,35.056-4.177,2.419-.318,4.781-1.068,7.8-1.764,0,7.6.084,14.556-.1,21.506a3.654,3.654,0,0,1-2.215,2.6c-22.384,5.648-44.881,8.472-67.462,1.185-17.727-5.722-29.63-17.5-34.939-35.44-5.122-17.309-5.878-34.794.043-52.075,8.385-24.47,34.144-40.131,60.011-38.192,37.15,2.785,51.148,31.35,51.009,56.163-.034,5.995-.234,11.989-.418,17.982A22.419,22.419,0,0,1,460.413,1186.082Z" transform="translate(-168.598 -998.771)" fill="#282870"/>
      <path id="Path_229541" data-name="Path 229541" d="M572.354,1143.5c-10.884-6.814-21.914-10.938-33.845-11.666a95.115,95.115,0,0,0-20.336.972c-5.673.887-11.011,3.5-11.956,10.316-.968,6.982,3.836,10.574,9.088,12.814,8.391,3.58,17.221,6.117,25.754,9.386,6.342,2.43,12.977,4.572,18.671,8.137,22.4,14.026,21.167,45.554-2.04,58.351-11.993,6.613-25.1,7.349-38.355,6.757a81.551,81.551,0,0,1-30.369-7.417c-3.031-1.38-4.577-3.132-4.394-6.807.346-6.926.1-13.881.1-21.481a29.352,29.352,0,0,1,3.074,1.638c14.876,10.789,31.5,13.595,49.337,10.8a23.87,23.87,0,0,0,3.857-1.01c5.188-1.74,9.411-4.531,9.977-10.543s-2.82-10-7.867-12.111c-8.423-3.52-17.291-6-25.638-9.672-8.3-3.655-17.124-7.087-24.093-12.652-17.755-14.176-15.613-39.807,3.559-52.1,9.426-6.045,20.034-7.91,30.969-8.248a107.979,107.979,0,0,1,38.783,5.889c4.1,1.409,6.3,3.1,5.865,8.026C571.921,1129.417,572.354,1136.045,572.354,1143.5Z" transform="translate(-168.598 -998.771)" fill="#282870"/>
      <path id="Path_229542" data-name="Path 229542" d="M334.874,1211.524v23.3c-18.2,5.826-35.944,6.613-52.373-5.081-12.8-9.108-18.514-22.323-18.685-37.478-.412-36.485-.119-72.978-.1-109.467a11.894,11.894,0,0,1,.356-1.844h27.078v30.479h37.079c-1.486,7.6-2.813,14.377-4.221,21.568H291.658c-.121,1.9-.291,3.349-.292,4.8q-.029,25.492-.006,50.986c0,1.5.02,3,.15,4.494,1.26,14.557,9.279,22.784,26.983,21.555C323.891,1214.455,329.2,1212.71,334.874,1211.524Z" transform="translate(-168.598 -998.771)" fill="#282870"/>
      <path id="Path_229543" data-name="Path 229543" d="M597.659,1080.771h26.95v30.785h37.016c-1.328,6.829-2.359,13.033-3.885,19.114-.265,1.056-2.6,2.217-4.014,2.256-7.82.219-15.649.106-23.475.106H625.66c-.419.86-.69,1.156-.689,1.451.048,19.97-.294,39.953.324,59.9.452,14.565,10.751,21.72,26.738,20.424,5.389-.437,10.678-2.109,16.232-3.262.088,1.57.22,2.884.225,4.2.022,6.309.01,12.618.01,19.089-20.8,6.386-40.319,6.564-57.211-9.031a42.367,42.367,0,0,1-13.824-31.626c-.317-36.963-.116-73.931-.105-110.9A25.112,25.112,0,0,1,597.659,1080.771Z" transform="translate(-168.598 -998.771)" fill="#282870"/>
    </g>
    <g id="Group_113909" data-name="Group 113909">
      <path id="Path_229545" data-name="Path 229545" d="M460.413,1186.082H395.641v-20.353h40.538c1.677-12.992-7-27.21-19.023-31.843-12.516-4.824-28.253-.04-35.756,11.508-2.746,4.225-5.422,9.272-5.77,14.114-.684,9.52-.949,19.4.833,28.7,3.319,17.324,16.427,27.1,35.823,26.762,11.707-.2,23.38-2.644,35.056-4.177,2.419-.318,4.781-1.068,7.8-1.764,0,7.6.084,14.556-.1,21.506a3.654,3.654,0,0,1-2.215,2.6c-22.384,5.648-44.881,8.472-67.462,1.185-17.727-5.722-29.63-17.5-34.939-35.44-5.122-17.309-5.878-34.794.043-52.075,8.385-24.47,34.144-40.131,60.011-38.192,37.15,2.785,51.148,31.35,51.009,56.163-.034,5.995-.234,11.989-.418,17.982A22.419,22.419,0,0,1,460.413,1186.082Z" transform="translate(793.402 -998.771)" fill="#282870"/>
      <path id="Path_229544" data-name="Path 229544" d="M572.354,1143.5c-10.884-6.814-21.914-10.938-33.845-11.666a95.115,95.115,0,0,0-20.336.972c-5.673.887-11.011,3.5-11.956,10.316-.968,6.982,3.836,10.574,9.088,12.814,8.391,3.58,17.221,6.117,25.754,9.386,6.342,2.43,12.977,4.572,18.671,8.137,22.4,14.026,21.167,45.554-2.04,58.351-11.993,6.613-25.1,7.349-38.355,6.757a81.551,81.551,0,0,1-30.369-7.417c-3.031-1.38-4.577-3.132-4.394-6.807.346-6.926.1-13.881.1-21.481a29.352,29.352,0,0,1,3.074,1.638c14.876,10.789,31.5,13.595,49.337,10.8a23.87,23.87,0,0,0,3.857-1.01c5.188-1.74,9.411-4.531,9.977-10.543s-2.82-10-7.867-12.111c-8.423-3.52-17.291-6-25.638-9.672-8.3-3.655-17.124-7.087-24.093-12.652-17.755-14.176-15.613-39.807,3.559-52.1,9.426-6.045,20.034-7.91,30.969-8.248a107.979,107.979,0,0,1,38.783,5.889c4.1,1.409,6.3,3.1,5.865,8.026C571.921,1129.417,572.354,1136.045,572.354,1143.5Z" transform="translate(325.402 -998.771)" fill="#282870"/>
      <path id="Path_229546" data-name="Path 229546" d="M128.576-123.424H103.04v68.768c0,22.624-12.32,34.272-31.136,34.272-18.592,0-30.912-11.648-30.912-34.272v-68.768H15.68v72.576c0,34.5,21.952,52.64,50.848,52.64,14.56,0,28.448-6.048,36.512-16.576V0h25.536ZM185.92-64.96c0-26.208,11.648-34.048,30.464-34.048h6.5V-125.44c-17.472,0-29.792,7.616-36.96,19.936v-17.92H160.384V0H185.92Z" transform="translate(907 238)" fill="#282870"/>
    </g>
  </g>
</svg>
